<?xml version="1.0" encoding="utf-8"?>
<!-- Generator: Adobe Illustrator 18.1.1, SVG Export Plug-In . SVG Version: 6.00 Build 0)  -->
<svg version="1.1" id="Layer_1" xmlns="http://www.w3.org/2000/svg" xmlns:xlink="http://www.w3.org/1999/xlink" x="0px" y="0px"
	 viewBox="-281 373 48 48" enable-background="new -281 373 48 48" xml:space="preserve">
<title>Atom/ Icon/ Rich icon/ Ancilliaries/ Excess baggage</title>
<desc>Created with Sketch.</desc>
<g id="Atom_x2F_-Icon_x2F_-Rich-icon_x2F_-Ancilliaries_x2F_-Excess-baggage">
	<g id="ANCI_Excess-baggage">
		<rect id="Rectangle" x="-281" y="373" fill="none" width="48" height="48"/>
		<g id="Group" transform="translate(0.000000, 2.000000)">
			<polygon id="Path" fill="#D33333" points="-275,398.5 -275,406.5 -267,398.5 			"/>
			<path id="Shape" fill="#4E4C4A" d="M-250.5,392.7h-6.9v-1c0-1.6-1.3-2.9-2.9-2.9h-5.9c-1.6,0-2.9,1.3-2.9,2.9v1h-6.9
				c-2.7,0-4.9,2.2-4.9,4.9v13.8c0,2.7,2.2,4.9,4.9,4.9h25.6c2.7,0,4.9-2.2,4.9-4.9v-13.8c0-1.3-0.5-2.6-1.5-3.5
				C-248,393.2-249.2,392.6-250.5,392.7z M-267.2,391.7c0-0.3,0.1-0.5,0.3-0.7c0.2-0.2,0.4-0.3,0.7-0.3h5.9c0.3,0,0.5,0.1,0.7,0.3
				c0.2,0.2,0.3,0.4,0.3,0.7v1h-7.9V391.7z M-271.2,414.3v-9l-2,2v7.1h-3c-1.6,0-2.9-1.3-3-2.9v-13.8c0-1.6,1.3-3,3-3h3v2h2v-2h15.8
				v19.7H-271.2z M-247.6,411.3c0,1.6-1.3,2.9-3,2.9h-2.9v-19.7h2.9c1.6,0,3,1.3,3,3V411.3z"/>
			<path id="Shape_1_" fill="#4E4C4A" d="M-238.7,376.9h-6.9v-1c0-1.6-1.3-2.9-2.9-3h-5.9c-1.6,0-3,1.3-3,3v1h-6.9
				c-2.7,0-4.9,2.2-4.9,4.9v4.9h2v-4.9c0-1.6,1.3-2.9,2.9-3h3v7.9h2v-7.9h15.7v19.7l0,0v2h4.9c1.3,0,2.6-0.5,3.5-1.4
				s1.4-2.2,1.4-3.5v-13.7C-233.8,379.1-236,376.9-238.7,376.9z M-255.4,376.9v-1c0-0.5,0.4-1,1-1h5.9c0.5,0,1,0.4,1,1v1H-255.4z
				 M-235.8,395.6c0,1.6-1.3,2.9-3,2.9h-2.9v-19.6h2.9c1.6,0,3,1.3,3,3V395.6z"/>
		</g>
	</g>
</g>
</svg>
