<?xml version="1.0" encoding="utf-8"?>
<!-- Generator: Adobe Illustrator 18.1.1, SVG Export Plug-In . SVG Version: 6.00 Build 0)  -->
<svg version="1.1" id="Layer_1" xmlns="http://www.w3.org/2000/svg" xmlns:xlink="http://www.w3.org/1999/xlink" x="0px" y="0px"
	 viewBox="-281 373 48 48" enable-background="new -281 373 48 48" xml:space="preserve">
<title>Atom/ Icon/ Rich icon/ Journey / Online Check-in</title>
<desc>Created with Sketch.</desc>
<g id="Atom_x2F_-Icon_x2F_-Rich-icon_x2F_-Journey-_x2F_-Online-Check-in">
	<g id="JRNY_Online-Check-in">
		<rect id="Rectangle" x="-281" y="373" fill="none" width="48" height="48"/>
		<g id="Group" transform="translate(0.000000, 1.900000)">
			<polygon id="Path" fill="#D33333" points="-257,378.8 -251.3,373.1 -262.6,373.1 			"/>
			<path id="Path_1_" fill="#4E4C4A" d="M-275,385.5c0-0.1,0-0.2,0.1-0.3c0.1-0.1,0.2-0.1,0.3-0.1h35.2c0.1,0,0.2,0,0.3,0.1
				c0.1,0.1,0.1,0.2,0.1,0.3v23.6h2v-23.6c0-0.6-0.2-1.2-0.7-1.7c-0.4-0.5-1.1-0.7-1.7-0.7h-35.2c-0.6,0-1.3,0.2-1.7,0.7
				c-0.5,0.5-0.7,1.1-0.7,1.7v23.6h2V385.5z"/>
			<path id="Shape" fill="#4E4C4A" d="M-234,411.1h-20.5c-0.6,0-1,0.5-1,1v0.6h-2.9v-0.6c0-0.6-0.5-1-1-1H-280c-0.6,0-1,0.5-1,1v2.4
				c0,1.4,1.2,2.6,2.6,2.6h42.8c0.7,0,1.4-0.3,1.9-0.8c0.5-0.5,0.8-1.2,0.8-1.9v-2.4C-233,411.6-233.4,411.1-234,411.1z M-235,414.5
				c0,0.3-0.3,0.6-0.6,0.6h-42.8c-0.3,0-0.5-0.3-0.5-0.6v-1.4h18.5c0.2,0.9,0.9,1.5,1.8,1.5h3.2c0.9,0,1.6-0.6,1.8-1.5h18.6
				L-235,414.5z"/>
			<path id="Path_2_" fill="#4E4C4A" d="M-251.8,403.8l1.8-0.9l-3.2-7.1l2.8-3.1c0.2-0.4,0.1-0.9-0.2-1.3c-0.3-0.3-0.8-0.4-1.2-0.1
				l-2.8,3.1l-7.1-2.5l-0.7,2l6.2,2.2l-3.2,3.6l-3.4-0.6l-0.3,2.1l3.3,0.5l1.1,3.5l1.9-0.6l-1.1-3.5l3.2-3.6L-251.8,403.8z"/>
		</g>
	</g>
</g>
</svg>
