<?xml version="1.0" encoding="utf-8"?>
<!-- Generator: Adobe Illustrator 18.1.1, SVG Export Plug-In . SVG Version: 6.00 Build 0)  -->
<svg version="1.1" id="Layer_1" xmlns="http://www.w3.org/2000/svg" xmlns:xlink="http://www.w3.org/1999/xlink" x="0px" y="0px"
	 viewBox="-281 373 48 48" enable-background="new -281 373 48 48" xml:space="preserve">
<title>Atom/ Icon/ Rich icon/ Communications/ Flight Status</title>
<desc>Created with Sketch.</desc>
<g id="Atom_x2F_-Icon_x2F_-Rich-icon_x2F_-Communications_x2F_-Flight-Status">
	<g id="COMMS_Flight-Status">
		<rect id="Rectangle" x="-281" y="373" fill="none" width="48" height="48"/>
		<g id="Group" transform="translate(1.948372, 0.000000)">
			<polygon id="Path" fill="#D33333" points="-258.9,378.4 -253.5,373 -264.3,373 			"/>
			<path id="Path_1_" fill="#4E4C4A" d="M-260.9,399.8h12.4v-1.9H-260v-15.3h-1.9v16.2C-261.9,399.3-261.5,399.8-260.9,399.8z"/>
			<path id="Path_2_" fill="#4E4C4A" d="M-253.5,376l-1.6,1.6c10.1,2,17.1,11.4,16.1,21.7c-1,10.3-9.6,18.2-20,18.2
				c-10.3,0-19-7.9-20-18.2s5.9-19.7,16.1-21.7l-1.6-1.6c-10.7,2.8-17.7,13.1-16.3,24.2c1.4,11,10.7,19.3,21.8,19.3
				c11.1,0,20.4-8.3,21.8-19.3C-235.7,389.1-242.7,378.8-253.5,376L-253.5,376z"/>
		</g>
	</g>
</g>
</svg>
