<?xml version="1.0" encoding="utf-8"?>
<!-- Generator: Adobe Illustrator 18.1.1, SVG Export Plug-In . SVG Version: 6.00 Build 0)  -->
<svg version="1.1" id="Layer_1" xmlns="http://www.w3.org/2000/svg" xmlns:xlink="http://www.w3.org/1999/xlink" x="0px" y="0px"
	 viewBox="-281 373 48 48" enable-background="new -281 373 48 48" xml:space="preserve">
<title>Atom/ Icon/ Rich icon/ Journey / Manage your booking</title>
<desc>Created with Sketch.</desc>
<g id="Atom_x2F_-Icon_x2F_-Rich-icon_x2F_-Journey-_x2F_-Manage-your-booking">
	<g id="JRNY_Manage-your-booking">
		<rect id="Rectangle" x="-281" y="373" fill="none" width="48" height="48"/>
		<g id="Group">
			<polygon id="Path" fill="#D33333" points="-276.5,389.3 -269.9,384.9 -281,382.7 			"/>
			<polygon id="Path_1_" fill="#4E4C4A" points="-247,421 -247,417 -249,417 -249,421 			"/>
			<path id="Path_2_" fill="#4E4C4A" d="M-265.7,386.6l4.2-2.1l-0.9-1.8l-2.7,1.4l-3.6,2.4l-0.5,0.4c0.5,0.1,0.9,0.2,1.4,0.2
				C-267.2,387-266.4,386.8-265.7,386.6L-265.7,386.6z"/>
			<path id="Path_3_" fill="#4E4C4A" d="M-234.2,375.5c-3.2-1.8-9.4,0.6-10,0.9l-8,3.1l-11.7-6.4c-0.3-0.1-0.6-0.1-0.8,0l-0.8,0.3
				c-0.3,0.1-0.5,0.3-0.5,0.6c-0.1,0.3-0.1,0.6,0.1,0.9l7.2,10.6l1.7-1.2l-5.7-8.3l10.1,5.5c0.3,0.1,0.6,0.2,0.8,0.1l8.5-3.3
				c1.6-0.7,6.3-2.2,8.3-1h0.1c-0.9,0.8-1.9,1.3-3,1.7l-23.1,9.2c-3.6,0.6-7.2,0.9-10.9,0.8l-2.9,2h0.1c1.1,0,2.1,0,3.1,0
				c3.7,0.1,7.5-0.2,11.2-0.9l23.3-9.1c1.3-0.5,4.2-1.8,4.4-3.6C-233,376.6-233.4,375.9-234.2,375.5L-234.2,375.5z"/>
			<path id="Shape" fill="#4E4C4A" d="M-257,397.2V395h-2v2.2c-1.9,0.5-3.2,2.4-3,4.4c0.3,2,2,3.5,4,3.5c2,0,3.7-1.5,4-3.5
				C-253.8,399.5-255,397.7-257,397.2L-257,397.2z M-258,402.9c-0.8,0-1.5-0.5-1.8-1.2c-0.3-0.7-0.1-1.6,0.4-2.1s1.4-0.7,2.2-0.4
				c0.7,0.3,1.2,1,1.2,1.8C-256,402.1-256.9,402.9-258,402.9L-258,402.9z"/>
			<rect id="Rectangle_1_" x="-259" y="407" fill="#4E4C4A" width="2" height="14"/>
			<path id="Shape_1_" fill="#4E4C4A" d="M-247,407.2V395h-2v12.2c-1.9,0.5-3.2,2.4-3,4.4c0.3,2,2,3.5,4,3.5c2,0,3.7-1.5,4-3.5
				C-243.8,409.5-245,407.7-247,407.2L-247,407.2z M-248,413c-1.1,0-2-0.9-2-2s0.9-2,2-2c1.1,0,2,0.9,2,2c0,0.5-0.2,1-0.6,1.4
				C-247,412.8-247.5,413-248,413L-248,413z"/>
			<path id="Shape_2_" fill="#4E4C4A" d="M-237,401.2V395h-2v6.2c-1.9,0.5-3.2,2.4-3,4.4c0.3,2,2,3.5,4,3.5s3.7-1.5,4-3.5
				C-233.8,403.5-235,401.7-237,401.2L-237,401.2z M-238,407c-0.7,0-1.4-0.4-1.7-1c-0.4-0.6-0.4-1.4,0-2c0.4-0.6,1-1,1.7-1l0,0
				c1.1,0,2,0.9,2,2S-236.9,407-238,407L-238,407z"/>
			<rect id="Rectangle_2_" x="-239" y="411" fill="#4E4C4A" width="2" height="10"/>
		</g>
	</g>
</g>
</svg>
