<?xml version="1.0" encoding="utf-8"?>
<!-- Generator: Adobe Illustrator 18.1.1, SVG Export Plug-In . SVG Version: 6.00 Build 0)  -->
<svg version="1.1" id="Layer_1" xmlns="http://www.w3.org/2000/svg" xmlns:xlink="http://www.w3.org/1999/xlink" x="0px" y="0px"
	 viewBox="-281 373 48 48" enable-background="new -281 373 48 48" xml:space="preserve">
<title>Atom/ Icon/ Rich icon/ Ancilliaries/ Upgrade</title>
<desc>Created with Sketch.</desc>
<g id="Atom_x2F_-Icon_x2F_-Rich-icon_x2F_-Ancilliaries_x2F_-Upgrade">
	<g id="ANCI_upgrade">
		<rect id="Rectangle" x="-281" y="373" fill="none" width="48" height="48"/>
		<g id="Group" transform="translate(0.000000, 2.000000)">
			<polygon id="Path" fill="#D33333" points="-257.2,412 -262.8,417.7 -251.5,417.7 			"/>
			<path id="Path_1_" fill="#4E4C4A" d="M-233.4,399.3l-21.9-26c-0.2-0.2-0.5-0.3-0.7-0.4c-0.3,0-0.6,0.1-0.8,0.3l-23.9,25.9
				c-0.2,0.3-0.3,0.7-0.2,1c0.2,0.4,0.5,0.6,0.9,0.6h14.9v15.6l0.9-0.9l1-1V400c0-0.5-0.5-1-1-1h-13.6l21.6-23.5l19.8,23.5h-13.8
				c-0.6,0-1,0.4-1,1v14.5l1,1l0.9,0.9V401h15c0.4,0,0.7-0.2,0.9-0.6C-233.1,400-233.2,399.6-233.4,399.3z"/>
		</g>
	</g>
</g>
</svg>
